<mxfile host="app.diagrams.net" agent="Mozilla/5.0 (Windows NT 10.0; Win64; x64) AppleWebKit/537.36 (KHTML, like Gecko) Chrome/130.0.0.0 Safari/537.36" version="24.8.3">
  <diagram name="PÃ¡gina-1" id="lH2x8hc2FWPRXYCgXoh3">
    <mxGraphModel dx="978" dy="558" grid="1" gridSize="10" guides="1" tooltips="1" connect="1" arrows="1" fold="1" page="1" pageScale="1" pageWidth="827" pageHeight="1169" math="0" shadow="0">
      <root>
        <mxCell id="0" />
        <mxCell id="1" parent="0" />
        <mxCell id="dfaSExwk2BpBwGWK31wq-12" value="" style="rounded=0;whiteSpace=wrap;html=1;" parent="1" vertex="1">
          <mxGeometry x="200" y="68.5" width="590" height="370" as="geometry" />
        </mxCell>
        <mxCell id="f4uUKKHgovcNgFXcEX6c-33" style="rounded=0;orthogonalLoop=1;jettySize=auto;html=1;exitX=0.5;exitY=0.5;exitDx=0;exitDy=0;exitPerimeter=0;entryX=0;entryY=0.5;entryDx=0;entryDy=0;strokeColor=default;endArrow=none;endFill=0;" parent="1" source="f4uUKKHgovcNgFXcEX6c-5" target="dfaSExwk2BpBwGWK31wq-2" edge="1">
          <mxGeometry relative="1" as="geometry">
            <mxPoint x="260" y="155" as="targetPoint" />
          </mxGeometry>
        </mxCell>
        <mxCell id="f4uUKKHgovcNgFXcEX6c-34" style="rounded=0;orthogonalLoop=1;jettySize=auto;html=1;exitX=0.5;exitY=0.5;exitDx=0;exitDy=0;exitPerimeter=0;entryX=0;entryY=0.5;entryDx=0;entryDy=0;endArrow=none;endFill=0;" parent="1" source="f4uUKKHgovcNgFXcEX6c-5" target="dfaSExwk2BpBwGWK31wq-3" edge="1">
          <mxGeometry relative="1" as="geometry">
            <mxPoint x="260" y="255" as="targetPoint" />
          </mxGeometry>
        </mxCell>
        <mxCell id="f4uUKKHgovcNgFXcEX6c-35" style="rounded=0;orthogonalLoop=1;jettySize=auto;html=1;entryX=0;entryY=0.5;entryDx=0;entryDy=0;endArrow=none;endFill=0;exitX=0.5;exitY=0.5;exitDx=0;exitDy=0;exitPerimeter=0;" parent="1" source="f4uUKKHgovcNgFXcEX6c-5" target="dfaSExwk2BpBwGWK31wq-4" edge="1">
          <mxGeometry relative="1" as="geometry">
            <mxPoint x="160" y="240" as="sourcePoint" />
            <mxPoint x="260" y="355" as="targetPoint" />
          </mxGeometry>
        </mxCell>
        <mxCell id="f4uUKKHgovcNgFXcEX6c-5" value="Profesor" style="shape=umlActor;verticalLabelPosition=bottom;verticalAlign=top;html=1;fontSize=13;" parent="1" vertex="1">
          <mxGeometry x="135" y="226" width="30" height="55" as="geometry" />
        </mxCell>
        <mxCell id="dfaSExwk2BpBwGWK31wq-2" value="Cargar clase" style="ellipse;whiteSpace=wrap;html=1;" parent="1" vertex="1">
          <mxGeometry x="247" y="120" width="130" height="70" as="geometry" />
        </mxCell>
        <mxCell id="dfaSExwk2BpBwGWK31wq-3" value="Modificar clase" style="ellipse;whiteSpace=wrap;html=1;" parent="1" vertex="1">
          <mxGeometry x="247" y="220" width="130" height="70" as="geometry" />
        </mxCell>
        <mxCell id="dfaSExwk2BpBwGWK31wq-4" value="Eliminar Clase" style="ellipse;whiteSpace=wrap;html=1;" parent="1" vertex="1">
          <mxGeometry x="247" y="320" width="130" height="70" as="geometry" />
        </mxCell>
        <mxCell id="dfaSExwk2BpBwGWK31wq-5" value="Ingresar datos" style="ellipse;whiteSpace=wrap;html=1;" parent="1" vertex="1">
          <mxGeometry x="467" y="170" width="110" height="70" as="geometry" />
        </mxCell>
        <mxCell id="dfaSExwk2BpBwGWK31wq-6" value="&amp;lt;Include&amp;gt;" style="endArrow=open;endSize=12;dashed=1;html=1;rounded=0;exitX=1.029;exitY=0.629;exitDx=0;exitDy=0;exitPerimeter=0;" parent="1" source="dfaSExwk2BpBwGWK31wq-2" edge="1">
          <mxGeometry width="160" relative="1" as="geometry">
            <mxPoint x="337" y="170" as="sourcePoint" />
            <mxPoint x="467" y="200" as="targetPoint" />
          </mxGeometry>
        </mxCell>
        <mxCell id="dfaSExwk2BpBwGWK31wq-7" value="&amp;lt;Include&amp;gt;" style="endArrow=open;endSize=12;dashed=1;html=1;rounded=0;exitX=1.021;exitY=0.329;exitDx=0;exitDy=0;exitPerimeter=0;entryX=0;entryY=0.5;entryDx=0;entryDy=0;" parent="1" source="dfaSExwk2BpBwGWK31wq-3" target="dfaSExwk2BpBwGWK31wq-5" edge="1">
          <mxGeometry width="160" relative="1" as="geometry">
            <mxPoint x="401" y="210" as="sourcePoint" />
            <mxPoint x="417" y="336" as="targetPoint" />
          </mxGeometry>
        </mxCell>
        <mxCell id="dfaSExwk2BpBwGWK31wq-8" value="Ingresar novedad&amp;nbsp;&lt;div&gt;de la clase&lt;/div&gt;" style="ellipse;whiteSpace=wrap;html=1;" parent="1" vertex="1">
          <mxGeometry x="642" y="120" width="120" height="70" as="geometry" />
        </mxCell>
        <mxCell id="dfaSExwk2BpBwGWK31wq-9" value="Adjuntar archivo" style="ellipse;whiteSpace=wrap;html=1;" parent="1" vertex="1">
          <mxGeometry x="642" y="226" width="120" height="70" as="geometry" />
        </mxCell>
        <mxCell id="dfaSExwk2BpBwGWK31wq-10" value="&amp;lt;Extend&amp;gt;" style="endArrow=open;endSize=12;dashed=1;html=1;rounded=0;exitX=0;exitY=0.5;exitDx=0;exitDy=0;" parent="1" source="dfaSExwk2BpBwGWK31wq-8" edge="1">
          <mxGeometry width="160" relative="1" as="geometry">
            <mxPoint x="477" y="120" as="sourcePoint" />
            <mxPoint x="577" y="205" as="targetPoint" />
          </mxGeometry>
        </mxCell>
        <mxCell id="dfaSExwk2BpBwGWK31wq-11" value="&amp;lt;Extend&amp;gt;" style="endArrow=open;endSize=12;dashed=1;html=1;rounded=0;entryX=1;entryY=0.5;entryDx=0;entryDy=0;exitX=0;exitY=0.5;exitDx=0;exitDy=0;" parent="1" source="dfaSExwk2BpBwGWK31wq-9" target="dfaSExwk2BpBwGWK31wq-5" edge="1">
          <mxGeometry width="160" relative="1" as="geometry">
            <mxPoint x="617" y="260" as="sourcePoint" />
            <mxPoint x="568" y="296" as="targetPoint" />
          </mxGeometry>
        </mxCell>
      </root>
    </mxGraphModel>
  </diagram>
</mxfile>
